<svg xmlns="http://www.w3.org/2000/svg" viewBox="0 0 1950 959" preserveAspectRatio="xMidYMid" width="1950" height="959" xmlns:xlink="http://www.w3.org/1999/xlink" style="shape-rendering:auto;display:block;background-position-x:0%;background-position-y:0%;background-size:auto;background-origin:padding-box;background-clip:border-box;background:scroll rgb(255, 255, 255) none  repeat;width:1950px;height:959px;;animation:none"><g style="transform:matrix(-1, 0, 0, -1, 1950, 959);;animation:none"><path fill="currentColor" d="M175.50 0.00L234.00 0.00L204.75 50.66zM292.50 0.00L263.25 50.66L321.75 50.66zM409.50 0.00L468.00 0.00L438.75 50.66zM468.00 0.00L438.75 50.66L497.25 50.66zM643.50 0.00L614.25 50.66L672.75 50.66zM702.00 0.00L672.75 50.66L731.25 50.66zM936.00 0.00L994.50 0.00L965.25 50.66zM1111.50 0.00L1082.25 50.66L1140.75 50.66zM1170.00 0.00L1228.50 0.00L1199.25 50.66zM-29.25 50.66L29.25 50.66L0.00 101.32zM29.25 50.66L87.75 50.66L58.50 101.32zM204.75 50.66L175.50 101.32L234.00 101.32zM263.25 50.66L321.75 50.66L292.50 101.32zM321.75 50.66L380.25 50.66L351.00 101.32zM380.25 50.66L438.75 50.66L409.50 101.32zM497.25 50.66L468.00 101.32L526.50 101.32zM731.25 50.66L702.00 101.32L760.50 101.32zM789.75 50.66L848.25 50.66L819.00 101.32zM906.75 50.66L965.25 50.66L936.00 101.32zM1082.25 50.66L1053.00 101.32L1111.50 101.32zM117.00 101.32L175.50 101.32L146.25 151.99zM175.50 101.32L146.25 151.99L204.75 151.99zM234.00 101.32L204.75 151.99L263.25 151.99zM409.50 101.32L380.25 151.99L438.75 151.99zM409.50 101.32L468.00 101.32L438.75 151.99zM585.00 101.32L555.75 151.99L614.25 151.99zM643.50 101.32L614.25 151.99L672.75 151.99zM643.50 101.32L702.00 101.32L672.75 151.99zM702.00 101.32L760.50 101.32L731.25 151.99zM760.50 101.32L819.00 101.32L789.75 151.99zM819.00 101.32L877.50 101.32L848.25 151.99zM936.00 101.32L906.75 151.99L965.25 151.99zM1053.00 101.32L1023.75 151.99L1082.25 151.99zM1170.00 101.32L1228.50 101.32L1199.25 151.99zM1228.50 101.32L1199.25 151.99L1257.75 151.99zM1228.50 101.32L1287.00 101.32L1257.75 151.99zM1287.00 101.32L1257.75 151.99L1316.25 151.99zM1345.50 101.32L1404.00 101.32L1374.75 151.99zM1404.00 101.32L1374.75 151.99L1433.25 151.99zM1579.50 101.32L1550.25 151.99L1608.75 151.99zM-29.25 151.99L29.25 151.99L0.00 202.65zM29.25 151.99L0.00 202.65L58.50 202.65zM29.25 151.99L87.75 151.99L58.50 202.65zM146.25 151.99L117.00 202.65L175.50 202.65zM204.75 151.99L175.50 202.65L234.00 202.65zM438.75 151.99L409.50 202.65L468.00 202.65zM614.25 151.99L585.00 202.65L643.50 202.65zM614.25 151.99L672.75 151.99L643.50 202.65zM731.25 151.99L789.75 151.99L760.50 202.65zM789.75 151.99L760.50 202.65L819.00 202.65zM1140.75 151.99L1199.25 151.99L1170.00 202.65zM0.00 202.65L58.50 202.65L29.25 253.31zM58.50 202.65L29.25 253.31L87.75 253.31zM175.50 202.65L146.25 253.31L204.75 253.31zM234.00 202.65L292.50 202.65L263.25 253.31zM351.00 202.65L321.75 253.31L380.25 253.31zM409.50 202.65L380.25 253.31L438.75 253.31zM468.00 202.65L438.75 253.31L497.25 253.31zM643.50 202.65L614.25 253.31L672.75 253.31zM643.50 202.65L702.00 202.65L672.75 253.31zM702.00 202.65L672.75 253.31L731.25 253.31zM819.00 202.65L877.50 202.65L848.25 253.31zM994.50 202.65L965.25 253.31L1023.75 253.31zM994.50 202.65L1053.00 202.65L1023.75 253.31zM1053.00 202.65L1023.75 253.31L1082.25 253.31zM1111.50 202.65L1170.00 202.65L1140.75 253.31zM1170.00 202.65L1140.75 253.31L1199.25 253.31zM1345.50 202.65L1404.00 202.65L1374.75 253.31zM1404.00 202.65L1374.75 253.31L1433.25 253.31zM29.25 253.31L0.00 303.97L58.50 303.97zM204.75 253.31L263.25 253.31L234.00 303.97zM263.25 253.31L234.00 303.97L292.50 303.97zM321.75 253.31L380.25 253.31L351.00 303.97zM380.25 253.31L438.75 253.31L409.50 303.97zM438.75 253.31L409.50 303.97L468.00 303.97zM438.75 253.31L497.25 253.31L468.00 303.97zM672.75 253.31L643.50 303.97L702.00 303.97zM731.25 253.31L702.00 303.97L760.50 303.97zM848.25 253.31L906.75 253.31L877.50 303.97zM1082.25 253.31L1140.75 253.31L1111.50 303.97zM1199.25 253.31L1257.75 253.31L1228.50 303.97zM1257.75 253.31L1316.25 253.31L1287.00 303.97zM1901.25 253.31L1959.75 253.31L1930.50 303.97zM1959.75 253.31L1930.50 303.97L1989.00 303.97zM117.00 303.97L87.75 354.64L146.25 354.64zM234.00 303.97L204.75 354.64L263.25 354.64zM643.50 303.97L614.25 354.64L672.75 354.64zM702.00 303.97L672.75 354.64L731.25 354.64zM760.50 303.97L819.00 303.97L789.75 354.64zM819.00 303.97L789.75 354.64L848.25 354.64zM877.50 303.97L848.25 354.64L906.75 354.64zM936.00 303.97L994.50 303.97L965.25 354.64zM994.50 303.97L965.25 354.64L1023.75 354.64zM1170.00 303.97L1140.75 354.64L1199.25 354.64zM1404.00 303.97L1374.75 354.64L1433.25 354.64zM29.25 354.64L0.00 405.30L58.50 405.30zM87.75 354.64L58.50 405.30L117.00 405.30zM321.75 354.64L380.25 354.64L351.00 405.30zM380.25 354.64L351.00 405.30L409.50 405.30zM438.75 354.64L409.50 405.30L468.00 405.30zM438.75 354.64L497.25 354.64L468.00 405.30zM497.25 354.64L468.00 405.30L526.50 405.30zM672.75 354.64L643.50 405.30L702.00 405.30zM789.75 354.64L760.50 405.30L819.00 405.30zM848.25 354.64L906.75 354.64L877.50 405.30zM906.75 354.64L877.50 405.30L936.00 405.30zM1140.75 354.64L1199.25 354.64L1170.00 405.30zM1199.25 354.64L1170.00 405.30L1228.50 405.30zM58.50 405.30L117.00 405.30L87.75 455.96zM175.50 405.30L146.25 455.96L204.75 455.96zM292.50 405.30L263.25 455.96L321.75 455.96zM409.50 405.30L380.25 455.96L438.75 455.96zM409.50 405.30L468.00 405.30L438.75 455.96zM643.50 405.30L614.25 455.96L672.75 455.96zM936.00 405.30L906.75 455.96L965.25 455.96zM1053.00 405.30L1023.75 455.96L1082.25 455.96zM1521.00 405.30L1491.75 455.96L1550.25 455.96zM-29.25 455.96L29.25 455.96L0.00 506.62zM87.75 455.96L58.50 506.62L117.00 506.62zM146.25 455.96L204.75 455.96L175.50 506.62zM204.75 455.96L175.50 506.62L234.00 506.62zM321.75 455.96L380.25 455.96L351.00 506.62zM380.25 455.96L351.00 506.62L409.50 506.62zM438.75 455.96L497.25 455.96L468.00 506.62zM614.25 455.96L672.75 455.96L643.50 506.62zM672.75 455.96L731.25 455.96L702.00 506.62zM789.75 455.96L760.50 506.62L819.00 506.62zM965.25 455.96L1023.75 455.96L994.50 506.62zM1023.75 455.96L994.50 506.62L1053.00 506.62zM0.00 506.62L-29.25 557.29L29.25 557.29zM0.00 506.62L58.50 506.62L29.25 557.29zM58.50 506.62L117.00 506.62L87.75 557.29zM117.00 506.62L87.75 557.29L146.25 557.29zM234.00 506.62L292.50 506.62L263.25 557.29zM351.00 506.62L409.50 506.62L380.25 557.29zM409.50 506.62L380.25 557.29L438.75 557.29zM643.50 506.62L702.00 506.62L672.75 557.29zM760.50 506.62L731.25 557.29L789.75 557.29zM760.50 506.62L819.00 506.62L789.75 557.29zM877.50 506.62L936.00 506.62L906.75 557.29zM1053.00 506.62L1023.75 557.29L1082.25 557.29zM1989.00 506.62L1959.75 557.29L2018.25 557.29zM-29.25 557.29L-58.50 607.95L0.00 607.95zM-29.25 557.29L29.25 557.29L0.00 607.95zM146.25 557.29L204.75 557.29L175.50 607.95zM204.75 557.29L263.25 557.29L234.00 607.95zM263.25 557.29L321.75 557.29L292.50 607.95zM497.25 557.29L468.00 607.95L526.50 607.95zM672.75 557.29L731.25 557.29L702.00 607.95zM906.75 557.29L965.25 557.29L936.00 607.95zM1959.75 557.29L1930.50 607.95L1989.00 607.95zM-58.50 607.95L0.00 607.95L-29.25 658.61zM0.00 607.95L-29.25 658.61L29.25 658.61zM58.50 607.95L29.25 658.61L87.75 658.61zM175.50 607.95L234.00 607.95L204.75 658.61zM409.50 607.95L380.25 658.61L438.75 658.61zM468.00 607.95L438.75 658.61L497.25 658.61zM468.00 607.95L526.50 607.95L497.25 658.61zM1111.50 607.95L1170.00 607.95L1140.75 658.61zM-87.75 658.61L-29.25 658.61L-58.50 709.27zM204.75 658.61L175.50 709.27L234.00 709.27zM204.75 658.61L263.25 658.61L234.00 709.27zM263.25 658.61L321.75 658.61L292.50 709.27zM321.75 658.61L292.50 709.27L351.00 709.27zM380.25 658.61L438.75 658.61L409.50 709.27zM1082.25 658.61L1140.75 658.61L1111.50 709.27zM0.00 709.27L-29.25 759.94L29.25 759.94zM0.00 709.27L58.50 709.27L29.25 759.94zM58.50 709.27L29.25 759.94L87.75 759.94zM234.00 709.27L292.50 709.27L263.25 759.94zM292.50 709.27L263.25 759.94L321.75 759.94zM468.00 709.27L526.50 709.27L497.25 759.94zM526.50 709.27L497.25 759.94L555.75 759.94zM760.50 709.27L731.25 759.94L789.75 759.94zM1228.50 709.27L1199.25 759.94L1257.75 759.94zM87.75 759.94L58.50 810.60L117.00 810.60zM87.75 759.94L146.25 759.94L117.00 810.60zM146.25 759.94L117.00 810.60L175.50 810.60zM204.75 759.94L263.25 759.94L234.00 810.60zM906.75 759.94L877.50 810.60L936.00 810.60zM1491.75 759.94L1462.50 810.60L1521.00 810.60zM292.50 810.60L263.25 861.26L321.75 861.26zM526.50 810.60L497.25 861.26L555.75 861.26zM526.50 810.60L585.00 810.60L555.75 861.26zM1404.00 810.60L1374.75 861.26L1433.25 861.26zM-87.75 861.26L-29.25 861.26L-58.50 911.92zM-29.25 861.26L-58.50 911.92L0.00 911.92zM29.25 861.26L87.75 861.26L58.50 911.92zM0.00 911.92L58.50 911.92L29.25 962.59zM117.00 911.92L87.75 962.59L146.25 962.59zM117.00 911.92L175.50 911.92L146.25 962.59zM175.50 911.92L146.25 962.59L204.75 962.59zM234.00 911.92L292.50 911.92L263.25 962.59zM468.00 911.92L438.75 962.59L497.25 962.59zM1287.00 911.92L1257.75 962.59L1316.25 962.59z" style="fill:rgba(228, 255, 246, 0.757);;animation:none"></path>
<path fill="currentColor" d="M1579.50 0.00L1550.25 50.66L1608.75 50.66zM672.75 50.66L731.25 50.66L702.00 101.32zM731.25 151.99L702.00 202.65L760.50 202.65zM1082.25 151.99L1053.00 202.65L1111.50 202.65zM1374.75 151.99L1433.25 151.99L1404.00 202.65zM1725.75 151.99L1696.50 202.65L1755.00 202.65zM760.50 202.65L819.00 202.65L789.75 253.31zM1638.00 303.97L1696.50 303.97L1667.25 354.64zM555.75 455.96L526.50 506.62L585.00 506.62zM1374.75 557.29L1345.50 607.95L1404.00 607.95zM1170.00 607.95L1140.75 658.61L1199.25 658.61zM1287.00 607.95L1257.75 658.61L1316.25 658.61zM351.00 709.27L409.50 709.27L380.25 759.94zM-29.25 759.94L29.25 759.94L0.00 810.60zM-58.50 810.60L0.00 810.60L-29.25 861.26zM87.75 861.26L146.25 861.26L117.00 911.92zM731.25 861.26L702.00 911.92L760.50 911.92z" style="fill:rgba(222, 253, 244, 0.76);;animation:none"></path>
<path fill="currentColor" d="M1374.75 50.66L1345.50 101.32L1404.00 101.32zM175.50 101.32L234.00 101.32L204.75 151.99zM1725.75 151.99L1784.25 151.99L1755.00 202.65zM1901.25 151.99L1872.00 202.65L1930.50 202.65zM1608.75 253.31L1579.50 303.97L1638.00 303.97zM234.00 607.95L292.50 607.95L263.25 658.61zM731.25 861.26L789.75 861.26L760.50 911.92z" style="fill:rgba(204, 247, 239, 0.776);;animation:none"></path>
<path fill="currentColor" d="M585.00 0.00L555.75 50.66L614.25 50.66zM1257.75 50.66L1228.50 101.32L1287.00 101.32zM1462.50 303.97L1521.00 303.97L1491.75 354.64zM848.25 557.29L906.75 557.29L877.50 607.95zM936.00 607.95L994.50 607.95L965.25 658.61zM1316.25 658.61L1374.75 658.61L1345.50 709.27zM555.75 861.26L614.25 861.26L585.00 911.92zM614.25 861.26L585.00 911.92L643.50 911.92zM672.75 861.26L731.25 861.26L702.00 911.92zM175.50 911.92L234.00 911.92L204.75 962.59z" style="fill:rgba(140, 227, 235, 0.827);;animation:none"></path>
<path fill="currentColor" d="M1433.25 50.66L1491.75 50.66L1462.50 101.32zM1696.50 101.32L1667.25 151.99L1725.75 151.99zM263.25 151.99L234.00 202.65L292.50 202.65zM965.25 151.99L1023.75 151.99L994.50 202.65zM234.00 202.65L204.75 253.31L263.25 253.31zM965.25 253.31L1023.75 253.31L994.50 303.97zM1550.25 253.31L1608.75 253.31L1579.50 303.97zM1433.25 354.64L1491.75 354.64L1462.50 405.30zM1228.50 405.30L1199.25 455.96L1257.75 455.96zM1608.75 455.96L1667.25 455.96L1638.00 506.62zM380.25 658.61L351.00 709.27L409.50 709.27zM848.25 658.61L906.75 658.61L877.50 709.27zM117.00 709.27L175.50 709.27L146.25 759.94zM292.50 709.27L351.00 709.27L321.75 759.94zM789.75 759.94L760.50 810.60L819.00 810.60z" style="fill:rgba(125, 222, 236, 0.84);;animation:none"></path>
<path fill="currentColor" d="M1696.50 101.32L1755.00 101.32L1725.75 151.99zM906.75 151.99L877.50 202.65L936.00 202.65zM1023.75 151.99L1082.25 151.99L1053.00 202.65zM497.25 455.96L555.75 455.96L526.50 506.62zM1257.75 455.96L1228.50 506.62L1287.00 506.62zM1872.00 506.62L1930.50 506.62L1901.25 557.29zM906.75 557.29L877.50 607.95L936.00 607.95zM1813.50 607.95L1784.25 658.61L1842.75 658.61zM58.50 810.60L29.25 861.26L87.75 861.26zM789.75 861.26L760.50 911.92L819.00 911.92zM1345.50 911.92L1316.25 962.59L1374.75 962.59z" style="fill:rgba(110, 217, 238, 0.85);;animation:none"></path>
<path fill="currentColor" d="M1579.50 0.00L1638.00 0.00L1608.75 50.66zM1725.75 50.66L1784.25 50.66L1755.00 101.32zM1287.00 101.32L1345.50 101.32L1316.25 151.99zM1755.00 101.32L1725.75 151.99L1784.25 151.99zM1433.25 151.99L1404.00 202.65L1462.50 202.65zM1433.25 151.99L1491.75 151.99L1462.50 202.65zM1521.00 303.97L1579.50 303.97L1550.25 354.64zM1491.75 354.64L1462.50 405.30L1521.00 405.30zM1199.25 658.61L1170.00 709.27L1228.50 709.27zM1433.25 658.61L1491.75 658.61L1462.50 709.27zM936.00 709.27L906.75 759.94L965.25 759.94zM819.00 810.60L789.75 861.26L848.25 861.26zM263.25 861.26L234.00 911.92L292.50 911.92zM497.25 861.26L468.00 911.92L526.50 911.92zM877.50 911.92L936.00 911.92L906.75 962.59z" style="fill:rgba(101, 214, 239, 0.86);;animation:none"></path>
<path fill="currentColor" d="M1228.50 0.00L1287.00 0.00L1257.75 50.66zM731.25 50.66L789.75 50.66L760.50 101.32zM1608.75 50.66L1579.50 101.32L1638.00 101.32zM1959.75 50.66L1930.50 101.32L1989.00 101.32zM58.50 101.32L117.00 101.32L87.75 151.99zM760.50 303.97L731.25 354.64L789.75 354.64zM789.75 455.96L848.25 455.96L819.00 506.62zM702.00 709.27L672.75 759.94L731.25 759.94zM1345.50 709.27L1316.25 759.94L1374.75 759.94zM1082.25 759.94L1140.75 759.94L1111.50 810.60zM1140.75 759.94L1111.50 810.60L1170.00 810.60zM175.50 810.60L234.00 810.60L204.75 861.26zM234.00 810.60L204.75 861.26L263.25 861.26zM702.00 810.60L760.50 810.60L731.25 861.26zM234.00 911.92L204.75 962.59L263.25 962.59z" style="fill:rgba(96, 212, 240, 0.863);;animation:none"></path>
<path fill="currentColor" d="M1491.75 50.66L1550.25 50.66L1521.00 101.32zM1550.25 151.99L1608.75 151.99L1579.50 202.65zM1608.75 151.99L1579.50 202.65L1638.00 202.65zM1901.25 151.99L1959.75 151.99L1930.50 202.65zM994.50 303.97L1053.00 303.97L1023.75 354.64zM1579.50 303.97L1550.25 354.64L1608.75 354.64zM906.75 354.64L965.25 354.64L936.00 405.30zM1550.25 354.64L1521.00 405.30L1579.50 405.30zM526.50 405.30L497.25 455.96L555.75 455.96zM438.75 455.96L409.50 506.62L468.00 506.62zM1725.75 455.96L1784.25 455.96L1755.00 506.62zM1813.50 506.62L1784.25 557.29L1842.75 557.29zM1345.50 607.95L1316.25 658.61L1374.75 658.61zM1608.75 658.61L1579.50 709.27L1638.00 709.27zM643.50 709.27L614.25 759.94L672.75 759.94zM819.00 709.27L789.75 759.94L848.25 759.94zM877.50 911.92L848.25 962.59L906.75 962.59z" style="fill:rgba(25, 191, 250, 0.906);;animation:none"></path>
<path fill="currentColor" d="M1433.25 50.66L1404.00 101.32L1462.50 101.32zM1784.25 50.66L1755.00 101.32L1813.50 101.32zM1550.25 151.99L1521.00 202.65L1579.50 202.65zM1784.25 151.99L1842.75 151.99L1813.50 202.65zM1930.50 202.65L1901.25 253.31L1959.75 253.31zM468.00 405.30L526.50 405.30L497.25 455.96zM1755.00 506.62L1813.50 506.62L1784.25 557.29zM1491.75 557.29L1462.50 607.95L1521.00 607.95zM965.25 658.61L1023.75 658.61L994.50 709.27zM1287.00 810.60L1345.50 810.60L1316.25 861.26zM936.00 911.92L906.75 962.59L965.25 962.59zM1111.50 911.92L1082.25 962.59L1140.75 962.59z" style="fill:rgba(0, 181, 254, 0.92);;animation:none"></path>
<path fill="currentColor" d="M1959.75 151.99L1930.50 202.65L1989.00 202.65zM1813.50 202.65L1784.25 253.31L1842.75 253.31zM526.50 303.97L497.25 354.64L555.75 354.64zM1667.25 354.64L1638.00 405.30L1696.50 405.30zM702.00 405.30L760.50 405.30L731.25 455.96zM819.00 405.30L789.75 455.96L848.25 455.96zM1521.00 405.30L1579.50 405.30L1550.25 455.96zM1579.50 405.30L1550.25 455.96L1608.75 455.96zM526.50 506.62L497.25 557.29L555.75 557.29zM1170.00 506.62L1228.50 506.62L1199.25 557.29zM1257.75 557.29L1228.50 607.95L1287.00 607.95zM1638.00 607.95L1608.75 658.61L1667.25 658.61zM1140.75 658.61L1199.25 658.61L1170.00 709.27zM526.50 709.27L585.00 709.27L555.75 759.94zM438.75 759.94L409.50 810.60L468.00 810.60zM1842.75 759.94L1901.25 759.94L1872.00 810.60zM819.00 911.92L789.75 962.59L848.25 962.59z" style="fill:rgba(0, 172, 255, 0.937);;animation:none"></path>
<path fill="currentColor" d="M1755.00 101.32L1813.50 101.32L1784.25 151.99zM1813.50 101.32L1784.25 151.99L1842.75 151.99zM380.25 455.96L438.75 455.96L409.50 506.62zM1638.00 506.62L1608.75 557.29L1667.25 557.29zM1608.75 557.29L1667.25 557.29L1638.00 607.95zM1667.25 557.29L1638.00 607.95L1696.50 607.95zM1842.75 658.61L1901.25 658.61L1872.00 709.27zM672.75 759.94L731.25 759.94L702.00 810.60zM1257.75 759.94L1316.25 759.94L1287.00 810.60zM1374.75 759.94L1433.25 759.94L1404.00 810.60zM994.50 810.60L1053.00 810.60L1023.75 861.26zM994.50 911.92L1053.00 911.92L1023.75 962.59z" style="fill:rgba(0, 154, 255, 0.965);;animation:none"></path>
<path fill="currentColor" d="M1608.75 151.99L1667.25 151.99L1638.00 202.65zM1404.00 303.97L1462.50 303.97L1433.25 354.64zM1725.75 354.64L1696.50 405.30L1755.00 405.30zM1725.75 354.64L1784.25 354.64L1755.00 405.30zM1755.00 405.30L1725.75 455.96L1784.25 455.96zM1140.75 455.96L1111.50 506.62L1170.00 506.62zM1608.75 455.96L1579.50 506.62L1638.00 506.62zM1842.75 455.96L1813.50 506.62L1872.00 506.62zM1491.75 557.29L1550.25 557.29L1521.00 607.95zM1842.75 557.29L1901.25 557.29L1872.00 607.95zM1901.25 658.61L1872.00 709.27L1930.50 709.27zM1111.50 709.27L1082.25 759.94L1140.75 759.94zM1755.00 709.27L1725.75 759.94L1784.25 759.94zM1023.75 861.26L1082.25 861.26L1053.00 911.92zM1608.75 861.26L1667.25 861.26L1638.00 911.92zM1725.75 861.26L1784.25 861.26L1755.00 911.92zM1842.75 861.26L1813.50 911.92L1872.00 911.92z" style="fill:rgba(0, 152, 255, 0.97);;animation:none"></path>
<path fill="currentColor" d="M1755.00 0.00L1813.50 0.00L1784.25 50.66zM1784.25 50.66L1842.75 50.66L1813.50 101.32zM1462.50 101.32L1433.25 151.99L1491.75 151.99zM1872.00 101.32L1930.50 101.32L1901.25 151.99zM468.00 506.62L526.50 506.62L497.25 557.29zM1842.75 557.29L1813.50 607.95L1872.00 607.95zM1784.25 759.94L1755.00 810.60L1813.50 810.60zM994.50 810.60L965.25 861.26L1023.75 861.26z" style="fill:rgba(10, 150, 255, 0.97);;animation:none"></path>
<path fill="currentColor" d="M1872.00 0.00L1842.75 50.66L1901.25 50.66zM1257.75 50.66L1316.25 50.66L1287.00 101.32zM1316.25 50.66L1287.00 101.32L1345.50 101.32zM1901.25 50.66L1872.00 101.32L1930.50 101.32zM1872.00 101.32L1842.75 151.99L1901.25 151.99zM1930.50 101.32L1989.00 101.32L1959.75 151.99zM1579.50 202.65L1638.00 202.65L1608.75 253.31zM1638.00 202.65L1608.75 253.31L1667.25 253.31zM1930.50 202.65L1989.00 202.65L1959.75 253.31zM906.75 253.31L965.25 253.31L936.00 303.97zM965.25 253.31L936.00 303.97L994.50 303.97zM1374.75 253.31L1433.25 253.31L1404.00 303.97zM1433.25 253.31L1404.00 303.97L1462.50 303.97zM1901.25 253.31L1872.00 303.97L1930.50 303.97zM1755.00 303.97L1813.50 303.97L1784.25 354.64zM1813.50 303.97L1784.25 354.64L1842.75 354.64zM1784.25 354.64L1842.75 354.64L1813.50 405.30zM1901.25 354.64L1872.00 405.30L1930.50 405.30zM848.25 455.96L906.75 455.96L877.50 506.62zM906.75 455.96L965.25 455.96L936.00 506.62zM965.25 455.96L936.00 506.62L994.50 506.62zM1433.25 455.96L1491.75 455.96L1462.50 506.62zM1550.25 455.96L1521.00 506.62L1579.50 506.62zM1667.25 455.96L1725.75 455.96L1696.50 506.62zM1111.50 506.62L1082.25 557.29L1140.75 557.29zM1345.50 506.62L1404.00 506.62L1374.75 557.29zM1462.50 506.62L1433.25 557.29L1491.75 557.29zM1521.00 506.62L1579.50 506.62L1550.25 557.29zM1755.00 506.62L1725.75 557.29L1784.25 557.29zM1345.50 607.95L1404.00 607.95L1374.75 658.61zM1404.00 607.95L1374.75 658.61L1433.25 658.61zM1930.50 607.95L1989.00 607.95L1959.75 658.61zM1989.00 607.95L1959.75 658.61L2018.25 658.61zM906.75 658.61L965.25 658.61L936.00 709.27zM1257.75 658.61L1228.50 709.27L1287.00 709.27zM1491.75 658.61L1550.25 658.61L1521.00 709.27zM1667.25 658.61L1725.75 658.61L1696.50 709.27zM1901.25 658.61L1959.75 658.61L1930.50 709.27zM1345.50 709.27L1404.00 709.27L1374.75 759.94zM1404.00 709.27L1462.50 709.27L1433.25 759.94zM1521.00 709.27L1491.75 759.94L1550.25 759.94zM1579.50 709.27L1550.25 759.94L1608.75 759.94zM1638.00 709.27L1696.50 709.27L1667.25 759.94zM1696.50 709.27L1667.25 759.94L1725.75 759.94zM1872.00 709.27L1842.75 759.94L1901.25 759.94zM1872.00 709.27L1930.50 709.27L1901.25 759.94zM1930.50 709.27L1989.00 709.27L1959.75 759.94zM614.25 759.94L585.00 810.60L643.50 810.60zM1257.75 759.94L1228.50 810.60L1287.00 810.60zM1491.75 759.94L1550.25 759.94L1521.00 810.60zM1842.75 759.94L1813.50 810.60L1872.00 810.60zM1901.25 759.94L1959.75 759.94L1930.50 810.60zM1959.75 759.94L1930.50 810.60L1989.00 810.60zM1111.50 810.60L1170.00 810.60L1140.75 861.26zM1170.00 810.60L1140.75 861.26L1199.25 861.26zM1228.50 810.60L1287.00 810.60L1257.75 861.26zM1462.50 810.60L1433.25 861.26L1491.75 861.26zM1696.50 810.60L1667.25 861.26L1725.75 861.26zM1755.00 810.60L1725.75 861.26L1784.25 861.26zM1813.50 810.60L1784.25 861.26L1842.75 861.26zM1872.00 810.60L1842.75 861.26L1901.25 861.26zM1930.50 810.60L1989.00 810.60L1959.75 861.26zM1989.00 810.60L1959.75 861.26L2018.25 861.26zM1082.25 861.26L1053.00 911.92L1111.50 911.92zM1082.25 861.26L1140.75 861.26L1111.50 911.92zM1257.75 861.26L1316.25 861.26L1287.00 911.92zM1316.25 861.26L1287.00 911.92L1345.50 911.92zM1433.25 861.26L1404.00 911.92L1462.50 911.92zM1433.25 861.26L1491.75 861.26L1462.50 911.92zM1608.75 861.26L1579.50 911.92L1638.00 911.92zM1784.25 861.26L1842.75 861.26L1813.50 911.92zM1842.75 861.26L1901.25 861.26L1872.00 911.92zM1901.25 861.26L1872.00 911.92L1930.50 911.92zM1901.25 861.26L1959.75 861.26L1930.50 911.92zM1959.75 861.26L1930.50 911.92L1989.00 911.92zM468.00 911.92L526.50 911.92L497.25 962.59zM526.50 911.92L497.25 962.59L555.75 962.59zM760.50 911.92L819.00 911.92L789.75 962.59zM1170.00 911.92L1228.50 911.92L1199.25 962.59zM1404.00 911.92L1374.75 962.59L1433.25 962.59zM1462.50 911.92L1433.25 962.59L1491.75 962.59zM1521.00 911.92L1491.75 962.59L1550.25 962.59zM1579.50 911.92L1638.00 911.92L1608.75 962.59zM1638.00 911.92L1608.75 962.59L1667.25 962.59zM1638.00 911.92L1696.50 911.92L1667.25 962.59zM1696.50 911.92L1755.00 911.92L1725.75 962.59zM1813.50 911.92L1872.00 911.92L1842.75 962.59z" style="fill:rgb(70, 127, 255);;animation:none"></path>
<path fill="currentColor" d="M0.00 0.00L58.50 0.00L29.25 50.66zM58.50 0.00L29.25 50.66L87.75 50.66zM175.50 0.00L146.25 50.66L204.75 50.66zM234.00 0.00L204.75 50.66L263.25 50.66zM234.00 0.00L292.50 0.00L263.25 50.66zM351.00 0.00L409.50 0.00L380.25 50.66zM409.50 0.00L380.25 50.66L438.75 50.66zM526.50 0.00L497.25 50.66L555.75 50.66zM585.00 0.00L643.50 0.00L614.25 50.66zM643.50 0.00L702.00 0.00L672.75 50.66zM702.00 0.00L760.50 0.00L731.25 50.66zM760.50 0.00L731.25 50.66L789.75 50.66zM819.00 0.00L877.50 0.00L848.25 50.66zM877.50 0.00L848.25 50.66L906.75 50.66zM994.50 0.00L1053.00 0.00L1023.75 50.66zM1053.00 0.00L1023.75 50.66L1082.25 50.66zM1462.50 0.00L1521.00 0.00L1491.75 50.66zM1696.50 0.00L1755.00 0.00L1725.75 50.66zM1755.00 0.00L1725.75 50.66L1784.25 50.66zM-87.75 50.66L-29.25 50.66L-58.50 101.32zM-29.25 50.66L-58.50 101.32L0.00 101.32zM87.75 50.66L146.25 50.66L117.00 101.32zM146.25 50.66L117.00 101.32L175.50 101.32zM204.75 50.66L263.25 50.66L234.00 101.32zM263.25 50.66L234.00 101.32L292.50 101.32zM321.75 50.66L292.50 101.32L351.00 101.32zM497.25 50.66L555.75 50.66L526.50 101.32zM555.75 50.66L614.25 50.66L585.00 101.32zM614.25 50.66L585.00 101.32L643.50 101.32zM848.25 50.66L906.75 50.66L877.50 101.32zM906.75 50.66L877.50 101.32L936.00 101.32zM1725.75 50.66L1696.50 101.32L1755.00 101.32zM-58.50 101.32L0.00 101.32L-29.25 151.99zM0.00 101.32L58.50 101.32L29.25 151.99zM58.50 101.32L29.25 151.99L87.75 151.99zM234.00 101.32L292.50 101.32L263.25 151.99zM292.50 101.32L263.25 151.99L321.75 151.99zM292.50 101.32L351.00 101.32L321.75 151.99zM351.00 101.32L409.50 101.32L380.25 151.99zM468.00 101.32L438.75 151.99L497.25 151.99zM468.00 101.32L526.50 101.32L497.25 151.99zM526.50 101.32L585.00 101.32L555.75 151.99zM585.00 101.32L643.50 101.32L614.25 151.99zM702.00 101.32L672.75 151.99L731.25 151.99zM936.00 101.32L994.50 101.32L965.25 151.99zM994.50 101.32L1053.00 101.32L1023.75 151.99zM1053.00 101.32L1111.50 101.32L1082.25 151.99zM1521.00 101.32L1579.50 101.32L1550.25 151.99zM1638.00 101.32L1696.50 101.32L1667.25 151.99zM438.75 151.99L497.25 151.99L468.00 202.65zM497.25 151.99L468.00 202.65L526.50 202.65zM497.25 151.99L555.75 151.99L526.50 202.65zM1082.25 151.99L1140.75 151.99L1111.50 202.65zM1316.25 151.99L1374.75 151.99L1345.50 202.65zM1667.25 151.99L1725.75 151.99L1696.50 202.65zM58.50 202.65L117.00 202.65L87.75 253.31zM117.00 202.65L87.75 253.31L146.25 253.31zM117.00 202.65L175.50 202.65L146.25 253.31zM292.50 202.65L263.25 253.31L321.75 253.31zM292.50 202.65L351.00 202.65L321.75 253.31zM409.50 202.65L468.00 202.65L438.75 253.31zM526.50 202.65L585.00 202.65L555.75 253.31zM585.00 202.65L555.75 253.31L614.25 253.31zM585.00 202.65L643.50 202.65L614.25 253.31zM702.00 202.65L760.50 202.65L731.25 253.31zM760.50 202.65L731.25 253.31L789.75 253.31zM877.50 202.65L848.25 253.31L906.75 253.31zM936.00 202.65L994.50 202.65L965.25 253.31zM1170.00 202.65L1228.50 202.65L1199.25 253.31zM1228.50 202.65L1199.25 253.31L1257.75 253.31zM1228.50 202.65L1287.00 202.65L1257.75 253.31zM1287.00 202.65L1257.75 253.31L1316.25 253.31zM1696.50 202.65L1755.00 202.65L1725.75 253.31zM1813.50 202.65L1872.00 202.65L1842.75 253.31zM1872.00 202.65L1842.75 253.31L1901.25 253.31zM-29.25 253.31L-58.50 303.97L0.00 303.97zM29.25 253.31L87.75 253.31L58.50 303.97zM87.75 253.31L58.50 303.97L117.00 303.97zM146.25 253.31L117.00 303.97L175.50 303.97zM321.75 253.31L292.50 303.97L351.00 303.97zM380.25 253.31L351.00 303.97L409.50 303.97zM497.25 253.31L468.00 303.97L526.50 303.97zM497.25 253.31L555.75 253.31L526.50 303.97zM555.75 253.31L614.25 253.31L585.00 303.97zM614.25 253.31L585.00 303.97L643.50 303.97zM848.25 253.31L819.00 303.97L877.50 303.97zM1199.25 253.31L1170.00 303.97L1228.50 303.97zM1257.75 253.31L1228.50 303.97L1287.00 303.97zM1608.75 253.31L1667.25 253.31L1638.00 303.97zM-58.50 303.97L0.00 303.97L-29.25 354.64zM0.00 303.97L-29.25 354.64L29.25 354.64zM117.00 303.97L175.50 303.97L146.25 354.64zM175.50 303.97L146.25 354.64L204.75 354.64zM351.00 303.97L321.75 354.64L380.25 354.64zM585.00 303.97L555.75 354.64L614.25 354.64zM585.00 303.97L643.50 303.97L614.25 354.64zM819.00 303.97L877.50 303.97L848.25 354.64zM1345.50 303.97L1404.00 303.97L1374.75 354.64zM1696.50 303.97L1667.25 354.64L1725.75 354.64zM-87.75 354.64L-29.25 354.64L-58.50 405.30zM146.25 354.64L204.75 354.64L175.50 405.30zM204.75 354.64L263.25 354.64L234.00 405.30zM263.25 354.64L321.75 354.64L292.50 405.30zM380.25 354.64L438.75 354.64L409.50 405.30zM497.25 354.64L555.75 354.64L526.50 405.30zM672.75 354.64L731.25 354.64L702.00 405.30zM731.25 354.64L702.00 405.30L760.50 405.30zM1374.75 354.64L1433.25 354.64L1404.00 405.30zM175.50 405.30L234.00 405.30L204.75 455.96zM234.00 405.30L204.75 455.96L263.25 455.96zM292.50 405.30L351.00 405.30L321.75 455.96zM351.00 405.30L321.75 455.96L380.25 455.96zM526.50 405.30L585.00 405.30L555.75 455.96zM585.00 405.30L643.50 405.30L614.25 455.96zM643.50 405.30L702.00 405.30L672.75 455.96zM702.00 405.30L672.75 455.96L731.25 455.96zM819.00 405.30L877.50 405.30L848.25 455.96zM994.50 405.30L965.25 455.96L1023.75 455.96zM1170.00 405.30L1140.75 455.96L1199.25 455.96zM1462.50 405.30L1521.00 405.30L1491.75 455.96zM1579.50 405.30L1638.00 405.30L1608.75 455.96zM1638.00 405.30L1608.75 455.96L1667.25 455.96zM-87.75 455.96L-29.25 455.96L-58.50 506.62zM87.75 455.96L146.25 455.96L117.00 506.62zM146.25 455.96L117.00 506.62L175.50 506.62zM204.75 455.96L263.25 455.96L234.00 506.62zM497.25 455.96L468.00 506.62L526.50 506.62zM555.75 455.96L614.25 455.96L585.00 506.62zM731.25 455.96L789.75 455.96L760.50 506.62zM1374.75 455.96L1433.25 455.96L1404.00 506.62zM117.00 506.62L175.50 506.62L146.25 557.29zM292.50 506.62L263.25 557.29L321.75 557.29zM819.00 506.62L789.75 557.29L848.25 557.29zM994.50 506.62L1053.00 506.62L1023.75 557.29zM1287.00 506.62L1257.75 557.29L1316.25 557.29zM29.25 557.29L87.75 557.29L58.50 607.95zM87.75 557.29L58.50 607.95L117.00 607.95zM146.25 557.29L117.00 607.95L175.50 607.95zM204.75 557.29L175.50 607.95L234.00 607.95zM263.25 557.29L234.00 607.95L292.50 607.95zM321.75 557.29L292.50 607.95L351.00 607.95zM321.75 557.29L380.25 557.29L351.00 607.95zM380.25 557.29L351.00 607.95L409.50 607.95zM497.25 557.29L555.75 557.29L526.50 607.95zM731.25 557.29L789.75 557.29L760.50 607.95zM789.75 557.29L760.50 607.95L819.00 607.95zM965.25 557.29L1023.75 557.29L994.50 607.95zM1023.75 557.29L994.50 607.95L1053.00 607.95zM0.00 607.95L58.50 607.95L29.25 658.61zM117.00 607.95L175.50 607.95L146.25 658.61zM585.00 607.95L643.50 607.95L614.25 658.61zM1521.00 607.95L1491.75 658.61L1550.25 658.61zM-29.25 658.61L-58.50 709.27L0.00 709.27zM29.25 658.61L87.75 658.61L58.50 709.27zM263.25 658.61L234.00 709.27L292.50 709.27zM438.75 658.61L409.50 709.27L468.00 709.27zM672.75 658.61L731.25 658.61L702.00 709.27zM731.25 658.61L702.00 709.27L760.50 709.27zM731.25 658.61L789.75 658.61L760.50 709.27zM1140.75 658.61L1111.50 709.27L1170.00 709.27zM-58.50 709.27L0.00 709.27L-29.25 759.94zM117.00 709.27L87.75 759.94L146.25 759.94zM234.00 709.27L204.75 759.94L263.25 759.94zM936.00 709.27L994.50 709.27L965.25 759.94zM994.50 709.27L965.25 759.94L1023.75 759.94zM1053.00 709.27L1023.75 759.94L1082.25 759.94zM263.25 759.94L234.00 810.60L292.50 810.60zM848.25 759.94L906.75 759.94L877.50 810.60zM1433.25 759.94L1491.75 759.94L1462.50 810.60zM117.00 810.60L87.75 861.26L146.25 861.26zM234.00 810.60L292.50 810.60L263.25 861.26zM585.00 810.60L555.75 861.26L614.25 861.26zM877.50 810.60L848.25 861.26L906.75 861.26zM1345.50 810.60L1404.00 810.60L1374.75 861.26zM87.75 861.26L58.50 911.92L117.00 911.92zM438.75 861.26L409.50 911.92L468.00 911.92zM1550.25 861.26L1521.00 911.92L1579.50 911.92zM58.50 911.92L29.25 962.59L87.75 962.59zM292.50 911.92L263.25 962.59L321.75 962.59zM409.50 911.92L380.25 962.59L438.75 962.59zM936.00 911.92L994.50 911.92L965.25 962.59z" style="fill:rgba(228, 255, 246, 0.757);;animation:none"></path>
<path fill="currentColor" d="M526.50 101.32L497.25 151.99L555.75 151.99zM672.75 151.99L731.25 151.99L702.00 202.65zM1257.75 151.99L1316.25 151.99L1287.00 202.65zM1316.25 151.99L1287.00 202.65L1345.50 202.65zM234.00 405.30L292.50 405.30L263.25 455.96zM994.50 405.30L1053.00 405.30L1023.75 455.96zM263.25 455.96L321.75 455.96L292.50 506.62zM672.75 557.29L643.50 607.95L702.00 607.95zM819.00 607.95L789.75 658.61L848.25 658.61zM497.25 658.61L555.75 658.61L526.50 709.27zM819.00 810.60L877.50 810.60L848.25 861.26zM146.25 861.26L117.00 911.92L175.50 911.92zM994.50 911.92L965.25 962.59L1023.75 962.59z" style="fill:rgba(212, 250, 241, 0.773);;animation:none"></path>
<path fill="currentColor" d="M994.50 0.00L965.25 50.66L1023.75 50.66zM1228.50 0.00L1199.25 50.66L1257.75 50.66zM1199.25 50.66L1170.00 101.32L1228.50 101.32zM1521.00 101.32L1491.75 151.99L1550.25 151.99zM380.25 151.99L351.00 202.65L409.50 202.65zM1316.25 253.31L1287.00 303.97L1345.50 303.97zM1491.75 253.31L1550.25 253.31L1521.00 303.97zM1930.50 506.62L1989.00 506.62L1959.75 557.29zM526.50 607.95L497.25 658.61L555.75 658.61zM994.50 607.95L965.25 658.61L1023.75 658.61zM614.25 658.61L585.00 709.27L643.50 709.27zM1608.75 658.61L1667.25 658.61L1638.00 709.27zM643.50 810.60L614.25 861.26L672.75 861.26zM204.75 861.26L175.50 911.92L234.00 911.92zM819.00 911.92L877.50 911.92L848.25 962.59z" style="fill:rgba(207, 248, 239, 0.776);;animation:none"></path>
<path fill="currentColor" d="M1023.75 50.66L994.50 101.32L1053.00 101.32zM1140.75 50.66L1199.25 50.66L1170.00 101.32zM321.75 151.99L380.25 151.99L351.00 202.65zM789.75 151.99L848.25 151.99L819.00 202.65zM1023.75 151.99L994.50 202.65L1053.00 202.65zM1784.25 151.99L1755.00 202.65L1813.50 202.65zM468.00 202.65L526.50 202.65L497.25 253.31zM1199.25 455.96L1257.75 455.96L1228.50 506.62zM1521.00 607.95L1579.50 607.95L1550.25 658.61zM1638.00 607.95L1696.50 607.95L1667.25 658.61zM87.75 658.61L146.25 658.61L117.00 709.27zM146.25 658.61L117.00 709.27L175.50 709.27zM1667.25 658.61L1638.00 709.27L1696.50 709.27zM614.25 759.94L672.75 759.94L643.50 810.60zM585.00 810.60L643.50 810.60L614.25 861.26zM-58.50 911.92L0.00 911.92L-29.25 962.59zM1228.50 911.92L1287.00 911.92L1257.75 962.59z" style="fill:rgba(145, 229, 235, 0.827);;animation:none"></path>
<path fill="currentColor" d="M1755.00 202.65L1725.75 253.31L1784.25 253.31zM204.75 253.31L175.50 303.97L234.00 303.97zM1784.25 253.31L1755.00 303.97L1813.50 303.97zM1023.75 354.64L1082.25 354.64L1053.00 405.30zM1082.25 354.64L1053.00 405.30L1111.50 405.30zM585.00 405.30L555.75 455.96L614.25 455.96zM1053.00 405.30L1111.50 405.30L1082.25 455.96zM1170.00 405.30L1228.50 405.30L1199.25 455.96zM1082.25 455.96L1053.00 506.62L1111.50 506.62zM1199.25 455.96L1170.00 506.62L1228.50 506.62zM1257.75 455.96L1316.25 455.96L1287.00 506.62zM526.50 607.95L585.00 607.95L555.75 658.61zM585.00 607.95L555.75 658.61L614.25 658.61zM702.00 607.95L672.75 658.61L731.25 658.61zM702.00 607.95L760.50 607.95L731.25 658.61zM906.75 658.61L877.50 709.27L936.00 709.27zM1374.75 658.61L1345.50 709.27L1404.00 709.27zM643.50 709.27L702.00 709.27L672.75 759.94zM0.00 810.60L58.50 810.60L29.25 861.26z" style="fill:rgba(117, 219, 237, 0.847);;animation:none"></path>
<path fill="currentColor" d="M1638.00 0.00L1608.75 50.66L1667.25 50.66zM1930.50 0.00L1989.00 0.00L1959.75 50.66zM848.25 151.99L906.75 151.99L877.50 202.65zM1521.00 202.65L1579.50 202.65L1550.25 253.31zM146.25 253.31L204.75 253.31L175.50 303.97zM351.00 405.30L409.50 405.30L380.25 455.96zM1345.50 405.30L1316.25 455.96L1374.75 455.96zM321.75 455.96L292.50 506.62L351.00 506.62zM1316.25 455.96L1287.00 506.62L1345.50 506.62zM1023.75 557.29L1082.25 557.29L1053.00 607.95zM1082.25 557.29L1140.75 557.29L1111.50 607.95zM643.50 607.95L702.00 607.95L672.75 658.61zM1404.00 607.95L1462.50 607.95L1433.25 658.61zM175.50 709.27L146.25 759.94L204.75 759.94zM409.50 810.60L468.00 810.60L438.75 861.26z" style="fill:rgba(118, 220, 237, 0.847);;animation:none"></path>
<path fill="currentColor" d="M1404.00 0.00L1462.50 0.00L1433.25 50.66zM1140.75 50.66L1111.50 101.32L1170.00 101.32zM1316.25 50.66L1374.75 50.66L1345.50 101.32zM1462.50 101.32L1521.00 101.32L1491.75 151.99zM175.50 202.65L234.00 202.65L204.75 253.31zM1638.00 202.65L1696.50 202.65L1667.25 253.31zM1725.75 253.31L1784.25 253.31L1755.00 303.97zM1287.00 303.97L1257.75 354.64L1316.25 354.64zM1023.75 455.96L1082.25 455.96L1053.00 506.62zM1287.00 709.27L1345.50 709.27L1316.25 759.94zM1023.75 759.94L994.50 810.60L1053.00 810.60zM321.75 861.26L380.25 861.26L351.00 911.92zM438.75 861.26L497.25 861.26L468.00 911.92zM906.75 861.26L877.50 911.92L936.00 911.92zM526.50 911.92L585.00 911.92L555.75 962.59zM1053.00 911.92L1111.50 911.92L1082.25 962.59zM1287.00 911.92L1345.50 911.92L1316.25 962.59z" style="fill:rgba(78, 206, 243, 0.875);;animation:none"></path>
<path fill="currentColor" d="M936.00 0.00L906.75 50.66L965.25 50.66zM965.25 50.66L1023.75 50.66L994.50 101.32zM1082.25 50.66L1140.75 50.66L1111.50 101.32zM1901.25 50.66L1959.75 50.66L1930.50 101.32zM1813.50 303.97L1872.00 303.97L1842.75 354.64zM1872.00 303.97L1842.75 354.64L1901.25 354.64zM848.25 455.96L819.00 506.62L877.50 506.62zM526.50 506.62L585.00 506.62L555.75 557.29zM848.25 557.29L819.00 607.95L877.50 607.95zM877.50 607.95L936.00 607.95L906.75 658.61zM351.00 709.27L321.75 759.94L380.25 759.94zM877.50 709.27L848.25 759.94L906.75 759.94zM351.00 810.60L409.50 810.60L380.25 861.26zM848.25 861.26L906.75 861.26L877.50 911.92zM1023.75 861.26L994.50 911.92L1053.00 911.92zM1111.50 911.92L1170.00 911.92L1140.75 962.59z" style="fill:rgba(49, 197, 247, 0.894);;animation:none"></path>
<path fill="currentColor" d="M1345.50 101.32L1316.25 151.99L1374.75 151.99zM1199.25 151.99L1257.75 151.99L1228.50 202.65zM1491.75 151.99L1550.25 151.99L1521.00 202.65zM1696.50 202.65L1667.25 253.31L1725.75 253.31zM702.00 303.97L760.50 303.97L731.25 354.64zM877.50 303.97L936.00 303.97L906.75 354.64zM585.00 506.62L555.75 557.29L614.25 557.29zM994.50 506.62L965.25 557.29L1023.75 557.29zM1170.00 506.62L1140.75 557.29L1199.25 557.29zM936.00 607.95L906.75 658.61L965.25 658.61zM585.00 709.27L643.50 709.27L614.25 759.94zM1170.00 709.27L1140.75 759.94L1199.25 759.94zM380.25 759.94L438.75 759.94L409.50 810.60zM1053.00 810.60L1023.75 861.26L1082.25 861.26zM906.75 861.26L965.25 861.26L936.00 911.92z" style="fill:rgba(0, 183, 253, 0.918);;animation:none"></path>
<path fill="currentColor" d="M1462.50 0.00L1433.25 50.66L1491.75 50.66zM1842.75 151.99L1813.50 202.65L1872.00 202.65zM1813.50 405.30L1784.25 455.96L1842.75 455.96zM1813.50 405.30L1872.00 405.30L1842.75 455.96zM1872.00 405.30L1842.75 455.96L1901.25 455.96zM1842.75 455.96L1901.25 455.96L1872.00 506.62zM1228.50 506.62L1199.25 557.29L1257.75 557.29zM1170.00 607.95L1228.50 607.95L1199.25 658.61zM1374.75 658.61L1433.25 658.61L1404.00 709.27zM1550.25 658.61L1608.75 658.61L1579.50 709.27zM409.50 709.27L468.00 709.27L438.75 759.94zM468.00 709.27L438.75 759.94L497.25 759.94zM321.75 759.94L380.25 759.94L351.00 810.60zM438.75 759.94L497.25 759.94L468.00 810.60zM1316.25 759.94L1374.75 759.94L1345.50 810.60zM877.50 810.60L936.00 810.60L906.75 861.26zM1784.25 861.26L1755.00 911.92L1813.50 911.92zM292.50 911.92L351.00 911.92L321.75 962.59zM643.50 911.92L702.00 911.92L672.75 962.59z" style="fill:rgba(0, 182, 253, 0.918);;animation:none"></path>
<path fill="currentColor" d="M1813.50 0.00L1784.25 50.66L1842.75 50.66zM1638.00 101.32L1608.75 151.99L1667.25 151.99zM1491.75 253.31L1462.50 303.97L1521.00 303.97zM1053.00 303.97L1023.75 354.64L1082.25 354.64zM1111.50 303.97L1082.25 354.64L1140.75 354.64zM1374.75 354.64L1345.50 405.30L1404.00 405.30zM760.50 405.30L819.00 405.30L789.75 455.96zM-87.75 759.94L-29.25 759.94L-58.50 810.60zM263.25 759.94L321.75 759.94L292.50 810.60zM1433.25 759.94L1404.00 810.60L1462.50 810.60zM1901.25 759.94L1872.00 810.60L1930.50 810.60zM643.50 911.92L614.25 962.59L672.75 962.59z" style="fill:rgba(0, 182, 253, 0.918);;animation:none"></path>
<path fill="currentColor" d="M117.00 101.32L87.75 151.99L146.25 151.99zM1462.50 202.65L1433.25 253.31L1491.75 253.31zM1053.00 303.97L1111.50 303.97L1082.25 354.64zM1462.50 303.97L1433.25 354.64L1491.75 354.64zM1579.50 303.97L1638.00 303.97L1608.75 354.64zM1930.50 303.97L1989.00 303.97L1959.75 354.64zM1667.25 354.64L1725.75 354.64L1696.50 405.30zM585.00 709.27L555.75 759.94L614.25 759.94zM1374.75 759.94L1345.50 810.60L1404.00 810.60z" style="fill:rgba(0, 155, 255, 0.96);;animation:none"></path>
<path fill="currentColor" d="M1111.50 101.32L1170.00 101.32L1140.75 151.99zM1550.25 354.64L1608.75 354.64L1579.50 405.30zM760.50 405.30L731.25 455.96L789.75 455.96zM1696.50 405.30L1667.25 455.96L1725.75 455.96zM1082.25 455.96L1140.75 455.96L1111.50 506.62zM1462.50 506.62L1521.00 506.62L1491.75 557.29zM1872.00 607.95L1930.50 607.95L1901.25 658.61zM1930.50 607.95L1901.25 658.61L1959.75 658.61zM789.75 658.61L848.25 658.61L819.00 709.27zM965.25 658.61L936.00 709.27L994.50 709.27zM1023.75 658.61L994.50 709.27L1053.00 709.27zM1140.75 759.94L1199.25 759.94L1170.00 810.60z" style="fill:rgba(6, 150, 255, 0.97);;animation:none"></path>
<path fill="currentColor" d="M1374.75 50.66L1433.25 50.66L1404.00 101.32zM1170.00 101.32L1140.75 151.99L1199.25 151.99zM1725.75 253.31L1696.50 303.97L1755.00 303.97zM1638.00 303.97L1608.75 354.64L1667.25 354.64zM1345.50 405.30L1404.00 405.30L1374.75 455.96zM1287.00 506.62L1345.50 506.62L1316.25 557.29zM1316.25 557.29L1287.00 607.95L1345.50 607.95zM1550.25 557.29L1521.00 607.95L1579.50 607.95zM1521.00 810.60L1491.75 861.26L1550.25 861.26zM1755.00 911.92L1725.75 962.59L1784.25 962.59z" style="fill:rgba(0, 152, 255, 0.97);;animation:none"></path>
<path fill="currentColor" d="M1842.75 50.66L1813.50 101.32L1872.00 101.32zM1842.75 50.66L1901.25 50.66L1872.00 101.32zM1813.50 101.32L1872.00 101.32L1842.75 151.99zM1989.00 101.32L1959.75 151.99L2018.25 151.99zM1287.00 202.65L1345.50 202.65L1316.25 253.31zM1989.00 202.65L1959.75 253.31L2018.25 253.31zM1842.75 253.31L1813.50 303.97L1872.00 303.97zM1842.75 253.31L1901.25 253.31L1872.00 303.97zM1170.00 303.97L1228.50 303.97L1199.25 354.64zM1755.00 303.97L1725.75 354.64L1784.25 354.64zM1930.50 303.97L1901.25 354.64L1959.75 354.64zM1989.00 303.97L1959.75 354.64L2018.25 354.64zM1901.25 354.64L1959.75 354.64L1930.50 405.30zM1959.75 354.64L1930.50 405.30L1989.00 405.30zM1462.50 405.30L1433.25 455.96L1491.75 455.96zM1930.50 405.30L1901.25 455.96L1959.75 455.96zM1989.00 405.30L1959.75 455.96L2018.25 455.96zM1491.75 455.96L1462.50 506.62L1521.00 506.62zM1550.25 455.96L1608.75 455.96L1579.50 506.62zM1725.75 455.96L1696.50 506.62L1755.00 506.62zM1901.25 455.96L1959.75 455.96L1930.50 506.62zM1959.75 455.96L1930.50 506.62L1989.00 506.62zM1053.00 506.62L1111.50 506.62L1082.25 557.29zM1345.50 506.62L1316.25 557.29L1374.75 557.29zM1521.00 506.62L1491.75 557.29L1550.25 557.29zM1696.50 506.62L1755.00 506.62L1725.75 557.29zM1374.75 557.29L1433.25 557.29L1404.00 607.95zM1608.75 557.29L1579.50 607.95L1638.00 607.95zM1667.25 557.29L1725.75 557.29L1696.50 607.95zM1725.75 557.29L1696.50 607.95L1755.00 607.95zM1725.75 557.29L1784.25 557.29L1755.00 607.95zM1784.25 557.29L1755.00 607.95L1813.50 607.95zM1784.25 557.29L1842.75 557.29L1813.50 607.95zM1053.00 607.95L1023.75 658.61L1082.25 658.61zM1696.50 607.95L1755.00 607.95L1725.75 658.61zM1813.50 607.95L1872.00 607.95L1842.75 658.61zM1872.00 607.95L1842.75 658.61L1901.25 658.61zM614.25 658.61L672.75 658.61L643.50 709.27zM1257.75 658.61L1316.25 658.61L1287.00 709.27zM1316.25 658.61L1287.00 709.27L1345.50 709.27zM1550.25 658.61L1521.00 709.27L1579.50 709.27zM1842.75 658.61L1813.50 709.27L1872.00 709.27zM1053.00 709.27L1111.50 709.27L1082.25 759.94zM1228.50 709.27L1287.00 709.27L1257.75 759.94zM1287.00 709.27L1257.75 759.94L1316.25 759.94zM1462.50 709.27L1433.25 759.94L1491.75 759.94zM1696.50 709.27L1755.00 709.27L1725.75 759.94zM1930.50 709.27L1901.25 759.94L1959.75 759.94zM906.75 759.94L965.25 759.94L936.00 810.60zM965.25 759.94L936.00 810.60L994.50 810.60zM1023.75 759.94L1082.25 759.94L1053.00 810.60zM1199.25 759.94L1170.00 810.60L1228.50 810.60zM1199.25 759.94L1257.75 759.94L1228.50 810.60zM1550.25 759.94L1521.00 810.60L1579.50 810.60zM1667.25 759.94L1638.00 810.60L1696.50 810.60zM1404.00 810.60L1462.50 810.60L1433.25 861.26zM1521.00 810.60L1579.50 810.60L1550.25 861.26zM1579.50 810.60L1638.00 810.60L1608.75 861.26zM1755.00 810.60L1813.50 810.60L1784.25 861.26zM1813.50 810.60L1872.00 810.60L1842.75 861.26zM848.25 861.26L819.00 911.92L877.50 911.92zM1199.25 861.26L1170.00 911.92L1228.50 911.92zM1374.75 861.26L1345.50 911.92L1404.00 911.92zM1374.75 861.26L1433.25 861.26L1404.00 911.92zM1491.75 861.26L1462.50 911.92L1521.00 911.92zM1667.25 861.26L1725.75 861.26L1696.50 911.92zM1345.50 911.92L1404.00 911.92L1374.75 962.59zM1462.50 911.92L1521.00 911.92L1491.75 962.59zM1521.00 911.92L1579.50 911.92L1550.25 962.59zM1696.50 911.92L1667.25 962.59L1725.75 962.59zM1813.50 911.92L1784.25 962.59L1842.75 962.59zM1872.00 911.92L1842.75 962.59L1901.25 962.59zM1872.00 911.92L1930.50 911.92L1901.25 962.59zM1930.50 911.92L1901.25 962.59L1959.75 962.59zM1989.00 911.92L1959.75 962.59L2018.25 962.59z" style="fill:rgb(70, 127, 255);;animation:none"></path>
<path fill="currentColor" d="M-58.50 0.00L0.00 0.00L-29.25 50.66zM0.00 0.00L-29.25 50.66L29.25 50.66zM58.50 0.00L117.00 0.00L87.75 50.66zM117.00 0.00L87.75 50.66L146.25 50.66zM117.00 0.00L175.50 0.00L146.25 50.66zM292.50 0.00L351.00 0.00L321.75 50.66zM351.00 0.00L321.75 50.66L380.25 50.66zM468.00 0.00L526.50 0.00L497.25 50.66zM760.50 0.00L819.00 0.00L789.75 50.66zM819.00 0.00L789.75 50.66L848.25 50.66zM1053.00 0.00L1111.50 0.00L1082.25 50.66zM1111.50 0.00L1170.00 0.00L1140.75 50.66zM1170.00 0.00L1140.75 50.66L1199.25 50.66zM1521.00 0.00L1491.75 50.66L1550.25 50.66zM1521.00 0.00L1579.50 0.00L1550.25 50.66zM1638.00 0.00L1696.50 0.00L1667.25 50.66zM1696.50 0.00L1667.25 50.66L1725.75 50.66zM29.25 50.66L0.00 101.32L58.50 101.32zM87.75 50.66L58.50 101.32L117.00 101.32zM146.25 50.66L204.75 50.66L175.50 101.32zM380.25 50.66L351.00 101.32L409.50 101.32zM438.75 50.66L409.50 101.32L468.00 101.32zM438.75 50.66L497.25 50.66L468.00 101.32zM555.75 50.66L526.50 101.32L585.00 101.32zM614.25 50.66L672.75 50.66L643.50 101.32zM848.25 50.66L819.00 101.32L877.50 101.32zM965.25 50.66L936.00 101.32L994.50 101.32zM1023.75 50.66L1082.25 50.66L1053.00 101.32zM1608.75 50.66L1667.25 50.66L1638.00 101.32zM1667.25 50.66L1725.75 50.66L1696.50 101.32zM0.00 101.32L-29.25 151.99L29.25 151.99zM351.00 101.32L321.75 151.99L380.25 151.99zM760.50 101.32L731.25 151.99L789.75 151.99zM819.00 101.32L789.75 151.99L848.25 151.99zM877.50 101.32L848.25 151.99L906.75 151.99zM877.50 101.32L936.00 101.32L906.75 151.99zM994.50 101.32L965.25 151.99L1023.75 151.99zM1111.50 101.32L1082.25 151.99L1140.75 151.99zM-87.75 151.99L-29.25 151.99L-58.50 202.65zM-29.25 151.99L-58.50 202.65L0.00 202.65zM87.75 151.99L58.50 202.65L117.00 202.65zM87.75 151.99L146.25 151.99L117.00 202.65zM146.25 151.99L204.75 151.99L175.50 202.65zM204.75 151.99L263.25 151.99L234.00 202.65zM263.25 151.99L321.75 151.99L292.50 202.65zM321.75 151.99L292.50 202.65L351.00 202.65zM380.25 151.99L438.75 151.99L409.50 202.65zM555.75 151.99L526.50 202.65L585.00 202.65zM555.75 151.99L614.25 151.99L585.00 202.65zM672.75 151.99L643.50 202.65L702.00 202.65zM848.25 151.99L819.00 202.65L877.50 202.65zM906.75 151.99L965.25 151.99L936.00 202.65zM965.25 151.99L936.00 202.65L994.50 202.65zM1199.25 151.99L1170.00 202.65L1228.50 202.65zM1374.75 151.99L1345.50 202.65L1404.00 202.65zM351.00 202.65L409.50 202.65L380.25 253.31zM819.00 202.65L789.75 253.31L848.25 253.31zM877.50 202.65L936.00 202.65L906.75 253.31zM936.00 202.65L906.75 253.31L965.25 253.31zM1462.50 202.65L1521.00 202.65L1491.75 253.31zM1521.00 202.65L1491.75 253.31L1550.25 253.31zM-87.75 253.31L-29.25 253.31L-58.50 303.97zM-29.25 253.31L29.25 253.31L0.00 303.97zM87.75 253.31L146.25 253.31L117.00 303.97zM263.25 253.31L321.75 253.31L292.50 303.97zM555.75 253.31L526.50 303.97L585.00 303.97zM614.25 253.31L672.75 253.31L643.50 303.97zM672.75 253.31L731.25 253.31L702.00 303.97zM731.25 253.31L789.75 253.31L760.50 303.97zM789.75 253.31L760.50 303.97L819.00 303.97zM789.75 253.31L848.25 253.31L819.00 303.97zM906.75 253.31L877.50 303.97L936.00 303.97zM1140.75 253.31L1111.50 303.97L1170.00 303.97zM1140.75 253.31L1199.25 253.31L1170.00 303.97zM1550.25 253.31L1521.00 303.97L1579.50 303.97zM1667.25 253.31L1638.00 303.97L1696.50 303.97zM0.00 303.97L58.50 303.97L29.25 354.64zM58.50 303.97L29.25 354.64L87.75 354.64zM58.50 303.97L117.00 303.97L87.75 354.64zM175.50 303.97L234.00 303.97L204.75 354.64zM292.50 303.97L351.00 303.97L321.75 354.64zM351.00 303.97L409.50 303.97L380.25 354.64zM409.50 303.97L380.25 354.64L438.75 354.64zM409.50 303.97L468.00 303.97L438.75 354.64zM468.00 303.97L438.75 354.64L497.25 354.64zM526.50 303.97L585.00 303.97L555.75 354.64zM1111.50 303.97L1170.00 303.97L1140.75 354.64zM-29.25 354.64L-58.50 405.30L0.00 405.30zM-29.25 354.64L29.25 354.64L0.00 405.30zM29.25 354.64L87.75 354.64L58.50 405.30zM87.75 354.64L146.25 354.64L117.00 405.30zM146.25 354.64L117.00 405.30L175.50 405.30zM204.75 354.64L175.50 405.30L234.00 405.30zM263.25 354.64L234.00 405.30L292.50 405.30zM321.75 354.64L292.50 405.30L351.00 405.30zM555.75 354.64L526.50 405.30L585.00 405.30zM614.25 354.64L672.75 354.64L643.50 405.30zM731.25 354.64L789.75 354.64L760.50 405.30zM789.75 354.64L848.25 354.64L819.00 405.30zM848.25 354.64L819.00 405.30L877.50 405.30zM1082.25 354.64L1140.75 354.64L1111.50 405.30zM1140.75 354.64L1111.50 405.30L1170.00 405.30zM1433.25 354.64L1404.00 405.30L1462.50 405.30zM-58.50 405.30L0.00 405.30L-29.25 455.96zM0.00 405.30L-29.25 455.96L29.25 455.96zM0.00 405.30L58.50 405.30L29.25 455.96zM58.50 405.30L29.25 455.96L87.75 455.96zM117.00 405.30L87.75 455.96L146.25 455.96zM117.00 405.30L175.50 405.30L146.25 455.96zM468.00 405.30L438.75 455.96L497.25 455.96zM877.50 405.30L848.25 455.96L906.75 455.96zM877.50 405.30L936.00 405.30L906.75 455.96zM936.00 405.30L994.50 405.30L965.25 455.96zM1111.50 405.30L1170.00 405.30L1140.75 455.96zM-29.25 455.96L-58.50 506.62L0.00 506.62zM29.25 455.96L0.00 506.62L58.50 506.62zM29.25 455.96L87.75 455.96L58.50 506.62zM614.25 455.96L585.00 506.62L643.50 506.62zM672.75 455.96L643.50 506.62L702.00 506.62zM731.25 455.96L702.00 506.62L760.50 506.62zM1433.25 455.96L1404.00 506.62L1462.50 506.62zM-58.50 506.62L0.00 506.62L-29.25 557.29zM58.50 506.62L29.25 557.29L87.75 557.29zM175.50 506.62L146.25 557.29L204.75 557.29zM175.50 506.62L234.00 506.62L204.75 557.29zM234.00 506.62L204.75 557.29L263.25 557.29zM292.50 506.62L351.00 506.62L321.75 557.29zM351.00 506.62L321.75 557.29L380.25 557.29zM585.00 506.62L643.50 506.62L614.25 557.29zM643.50 506.62L614.25 557.29L672.75 557.29zM702.00 506.62L672.75 557.29L731.25 557.29zM702.00 506.62L760.50 506.62L731.25 557.29zM1228.50 506.62L1287.00 506.62L1257.75 557.29zM-87.75 557.29L-29.25 557.29L-58.50 607.95zM29.25 557.29L0.00 607.95L58.50 607.95zM87.75 557.29L146.25 557.29L117.00 607.95zM438.75 557.29L497.25 557.29L468.00 607.95zM555.75 557.29L526.50 607.95L585.00 607.95zM731.25 557.29L702.00 607.95L760.50 607.95zM965.25 557.29L936.00 607.95L994.50 607.95zM1316.25 557.29L1374.75 557.29L1345.50 607.95zM1901.25 557.29L1959.75 557.29L1930.50 607.95zM58.50 607.95L117.00 607.95L87.75 658.61zM117.00 607.95L87.75 658.61L146.25 658.61zM175.50 607.95L146.25 658.61L204.75 658.61zM234.00 607.95L204.75 658.61L263.25 658.61zM292.50 607.95L263.25 658.61L321.75 658.61zM351.00 607.95L409.50 607.95L380.25 658.61zM409.50 607.95L468.00 607.95L438.75 658.61zM643.50 607.95L614.25 658.61L672.75 658.61zM1462.50 607.95L1521.00 607.95L1491.75 658.61zM87.75 658.61L58.50 709.27L117.00 709.27zM146.25 658.61L204.75 658.61L175.50 709.27zM438.75 658.61L497.25 658.61L468.00 709.27zM497.25 658.61L468.00 709.27L526.50 709.27zM555.75 658.61L614.25 658.61L585.00 709.27zM789.75 658.61L760.50 709.27L819.00 709.27zM1023.75 658.61L1082.25 658.61L1053.00 709.27zM1082.25 658.61L1053.00 709.27L1111.50 709.27zM58.50 709.27L117.00 709.27L87.75 759.94zM175.50 709.27L234.00 709.27L204.75 759.94zM702.00 709.27L760.50 709.27L731.25 759.94zM994.50 709.27L1053.00 709.27L1023.75 759.94zM1170.00 709.27L1228.50 709.27L1199.25 759.94zM29.25 759.94L0.00 810.60L58.50 810.60zM29.25 759.94L87.75 759.94L58.50 810.60zM146.25 759.94L204.75 759.94L175.50 810.60zM204.75 759.94L175.50 810.60L234.00 810.60zM58.50 810.60L117.00 810.60L87.75 861.26zM175.50 810.60L146.25 861.26L204.75 861.26zM351.00 810.60L321.75 861.26L380.25 861.26zM468.00 810.60L526.50 810.60L497.25 861.26zM-29.25 861.26L29.25 861.26L0.00 911.92zM29.25 861.26L0.00 911.92L58.50 911.92zM380.25 861.26L438.75 861.26L409.50 911.92zM614.25 861.26L672.75 861.26L643.50 911.92zM672.75 861.26L643.50 911.92L702.00 911.92zM1491.75 861.26L1550.25 861.26L1521.00 911.92zM0.00 911.92L-29.25 962.59L29.25 962.59zM58.50 911.92L117.00 911.92L87.75 962.59zM351.00 911.92L409.50 911.92L380.25 962.59zM409.50 911.92L468.00 911.92L438.75 962.59z" style="fill:rgba(228, 255, 246, 0.757);;animation:none"></path>
<path fill="currentColor" d="M1140.75 151.99L1111.50 202.65L1170.00 202.65zM1842.75 151.99L1901.25 151.99L1872.00 202.65zM-58.50 202.65L0.00 202.65L-29.25 253.31zM526.50 202.65L497.25 253.31L555.75 253.31zM1082.25 253.31L1053.00 303.97L1111.50 303.97zM1228.50 303.97L1287.00 303.97L1257.75 354.64zM1053.00 607.95L1111.50 607.95L1082.25 658.61zM497.25 759.94L555.75 759.94L526.50 810.60zM555.75 759.94L526.50 810.60L585.00 810.60zM117.00 810.60L175.50 810.60L146.25 861.26zM292.50 810.60L351.00 810.60L321.75 861.26z" style="fill:rgba(189, 243, 236, 0.79);;animation:none"></path>
<path fill="currentColor" d="M672.75 50.66L643.50 101.32L702.00 101.32zM1667.25 50.66L1638.00 101.32L1696.50 101.32zM643.50 303.97L702.00 303.97L672.75 354.64zM1287.00 303.97L1345.50 303.97L1316.25 354.64zM1111.50 405.30L1082.25 455.96L1140.75 455.96zM409.50 506.62L468.00 506.62L438.75 557.29zM1140.75 557.29L1111.50 607.95L1170.00 607.95zM760.50 607.95L819.00 607.95L789.75 658.61zM1579.50 607.95L1550.25 658.61L1608.75 658.61zM1755.00 607.95L1813.50 607.95L1784.25 658.61zM321.75 658.61L380.25 658.61L351.00 709.27zM409.50 709.27L380.25 759.94L438.75 759.94zM0.00 810.60L-29.25 861.26L29.25 861.26z" style="fill:rgba(188, 243, 236, 0.792);;animation:none"></path>
<path fill="currentColor" d="M1199.25 50.66L1257.75 50.66L1228.50 101.32zM1111.50 202.65L1082.25 253.31L1140.75 253.31zM1579.50 202.65L1550.25 253.31L1608.75 253.31zM1023.75 253.31L1082.25 253.31L1053.00 303.97zM292.50 303.97L263.25 354.64L321.75 354.64zM1345.50 303.97L1316.25 354.64L1374.75 354.64zM1374.75 455.96L1345.50 506.62L1404.00 506.62zM468.00 506.62L438.75 557.29L497.25 557.29zM819.00 506.62L877.50 506.62L848.25 557.29zM1228.50 607.95L1287.00 607.95L1257.75 658.61zM1491.75 658.61L1462.50 709.27L1521.00 709.27z" style="fill:rgba(156, 232, 234, 0.816);;animation:none"></path>
<path fill="currentColor" d="M877.50 0.00L936.00 0.00L906.75 50.66zM1491.75 50.66L1462.50 101.32L1521.00 101.32zM1491.75 151.99L1462.50 202.65L1521.00 202.65zM0.00 202.65L-29.25 253.31L29.25 253.31zM234.00 303.97L292.50 303.97L263.25 354.64zM1521.00 303.97L1491.75 354.64L1550.25 354.64zM263.25 455.96L234.00 506.62L292.50 506.62zM936.00 506.62L906.75 557.29L965.25 557.29zM1111.50 506.62L1170.00 506.62L1140.75 557.29zM614.25 557.29L672.75 557.29L643.50 607.95zM1199.25 557.29L1170.00 607.95L1228.50 607.95zM1111.50 607.95L1082.25 658.61L1140.75 658.61z" style="fill:rgba(122, 221, 236, 0.843);;animation:none"></path>
<path fill="currentColor" d="M526.50 0.00L585.00 0.00L555.75 50.66zM1345.50 0.00L1316.25 50.66L1374.75 50.66zM1989.00 0.00L1959.75 50.66L2018.25 50.66zM789.75 50.66L760.50 101.32L819.00 101.32zM1550.25 50.66L1608.75 50.66L1579.50 101.32zM1053.00 202.65L1111.50 202.65L1082.25 253.31zM555.75 354.64L614.25 354.64L585.00 405.30zM555.75 557.29L614.25 557.29L585.00 607.95zM614.25 557.29L585.00 607.95L643.50 607.95zM1140.75 557.29L1199.25 557.29L1170.00 607.95zM760.50 607.95L731.25 658.61L789.75 658.61zM1696.50 607.95L1667.25 658.61L1725.75 658.61zM555.75 658.61L526.50 709.27L585.00 709.27zM672.75 759.94L643.50 810.60L702.00 810.60zM731.25 759.94L789.75 759.94L760.50 810.60zM409.50 810.60L380.25 861.26L438.75 861.26zM468.00 810.60L438.75 861.26L497.25 861.26zM146.25 861.26L204.75 861.26L175.50 911.92zM585.00 911.92L555.75 962.59L614.25 962.59zM760.50 911.92L731.25 962.59L789.75 962.59zM1170.00 911.92L1140.75 962.59L1199.25 962.59z" style="fill:rgba(117, 219, 237, 0.847);;animation:none"></path>
<path fill="currentColor" d="M1287.00 0.00L1345.50 0.00L1316.25 50.66zM1550.25 50.66L1521.00 101.32L1579.50 101.32zM1023.75 253.31L994.50 303.97L1053.00 303.97zM468.00 303.97L526.50 303.97L497.25 354.64zM936.00 303.97L906.75 354.64L965.25 354.64zM1287.00 405.30L1345.50 405.30L1316.25 455.96zM1316.25 455.96L1374.75 455.96L1345.50 506.62zM1784.25 455.96L1755.00 506.62L1813.50 506.62zM351.00 607.95L321.75 658.61L380.25 658.61zM-29.25 658.61L29.25 658.61L0.00 709.27zM29.25 658.61L0.00 709.27L58.50 709.27zM1433.25 658.61L1404.00 709.27L1462.50 709.27zM877.50 709.27L936.00 709.27L906.75 759.94zM1111.50 709.27L1170.00 709.27L1140.75 759.94zM965.25 861.26L1023.75 861.26L994.50 911.92zM702.00 911.92L760.50 911.92L731.25 962.59z" style="fill:rgba(124, 222, 236, 0.843);;animation:none"></path>
<path fill="currentColor" d="M1287.00 0.00L1257.75 50.66L1316.25 50.66zM614.25 354.64L585.00 405.30L643.50 405.30zM1140.75 455.96L1199.25 455.96L1170.00 506.62zM1667.25 455.96L1638.00 506.62L1696.50 506.62zM1696.50 506.62L1667.25 557.29L1725.75 557.29zM1462.50 607.95L1433.25 658.61L1491.75 658.61zM848.25 759.94L819.00 810.60L877.50 810.60zM760.50 810.60L819.00 810.60L789.75 861.26zM1053.00 911.92L1023.75 962.59L1082.25 962.59z" style="fill:rgba(46, 196, 247, 0.894);;animation:none"></path>
<path fill="currentColor" d="M1257.75 151.99L1228.50 202.65L1287.00 202.65zM1257.75 354.64L1228.50 405.30L1287.00 405.30zM877.50 506.62L848.25 557.29L906.75 557.29zM819.00 607.95L877.50 607.95L848.25 658.61zM877.50 607.95L848.25 658.61L906.75 658.61zM1228.50 607.95L1199.25 658.61L1257.75 658.61zM1287.00 607.95L1345.50 607.95L1316.25 658.61zM819.00 709.27L877.50 709.27L848.25 759.94zM321.75 759.94L292.50 810.60L351.00 810.60zM380.25 759.94L351.00 810.60L409.50 810.60zM965.25 759.94L1023.75 759.94L994.50 810.60zM643.50 810.60L702.00 810.60L672.75 861.26zM760.50 810.60L731.25 861.26L789.75 861.26zM321.75 861.26L292.50 911.92L351.00 911.92zM380.25 861.26L351.00 911.92L409.50 911.92z" style="fill:rgba(77, 206, 243, 0.875);;animation:none"></path>
<path fill="currentColor" d="M1872.00 0.00L1930.50 0.00L1901.25 50.66zM1930.50 0.00L1901.25 50.66L1959.75 50.66zM1404.00 202.65L1462.50 202.65L1433.25 253.31zM1023.75 354.64L994.50 405.30L1053.00 405.30zM1199.25 354.64L1257.75 354.64L1228.50 405.30zM1491.75 354.64L1550.25 354.64L1521.00 405.30zM1696.50 405.30L1755.00 405.30L1725.75 455.96zM1901.25 455.96L1872.00 506.62L1930.50 506.62zM1638.00 506.62L1696.50 506.62L1667.25 557.29zM1257.75 557.29L1316.25 557.29L1287.00 607.95zM1901.25 557.29L1872.00 607.95L1930.50 607.95zM292.50 607.95L351.00 607.95L321.75 658.61zM1579.50 607.95L1638.00 607.95L1608.75 658.61zM1813.50 709.27L1784.25 759.94L1842.75 759.94zM-29.25 759.94L-58.50 810.60L0.00 810.60zM497.25 759.94L468.00 810.60L526.50 810.60zM789.75 759.94L848.25 759.94L819.00 810.60zM1316.25 759.94L1287.00 810.60L1345.50 810.60zM702.00 810.60L672.75 861.26L731.25 861.26zM936.00 810.60L906.75 861.26L965.25 861.26zM204.75 861.26L263.25 861.26L234.00 911.92z" style="fill:rgba(40, 194, 248, 0.898);;animation:none"></path>
<path fill="currentColor" d="M1579.50 101.32L1638.00 101.32L1608.75 151.99zM965.25 354.64L936.00 405.30L994.50 405.30zM965.25 354.64L1023.75 354.64L994.50 405.30zM1257.75 354.64L1316.25 354.64L1287.00 405.30zM1316.25 354.64L1287.00 405.30L1345.50 405.30zM1755.00 405.30L1813.50 405.30L1784.25 455.96zM1930.50 506.62L1901.25 557.29L1959.75 557.29zM789.75 557.29L848.25 557.29L819.00 607.95zM1082.25 557.29L1053.00 607.95L1111.50 607.95zM1199.25 557.29L1257.75 557.29L1228.50 607.95zM1433.25 557.29L1491.75 557.29L1462.50 607.95zM672.75 658.61L643.50 709.27L702.00 709.27zM760.50 709.27L819.00 709.27L789.75 759.94zM1872.00 810.60L1930.50 810.60L1901.25 861.26zM1930.50 810.60L1901.25 861.26L1959.75 861.26zM263.25 861.26L321.75 861.26L292.50 911.92zM965.25 861.26L936.00 911.92L994.50 911.92zM702.00 911.92L672.75 962.59L731.25 962.59z" style="fill:rgba(0, 165, 255, 0.945);;animation:none"></path>
<path fill="currentColor" d="M1872.00 202.65L1930.50 202.65L1901.25 253.31zM1316.25 354.64L1374.75 354.64L1345.50 405.30zM1784.25 455.96L1842.75 455.96L1813.50 506.62zM936.00 506.62L994.50 506.62L965.25 557.29zM438.75 557.29L409.50 607.95L468.00 607.95zM1755.00 709.27L1813.50 709.27L1784.25 759.94zM1287.00 810.60L1257.75 861.26L1316.25 861.26zM1345.50 810.60L1316.25 861.26L1374.75 861.26zM1199.25 861.26L1257.75 861.26L1228.50 911.92z" style="fill:rgba(0, 170, 255, 0.94);;animation:none"></path>
<path fill="currentColor" d="M1404.00 101.32L1462.50 101.32L1433.25 151.99zM1667.25 151.99L1638.00 202.65L1696.50 202.65zM1755.00 202.65L1813.50 202.65L1784.25 253.31zM1433.25 253.31L1491.75 253.31L1462.50 303.97zM1696.50 303.97L1755.00 303.97L1725.75 354.64z" style="fill:rgba(0, 155, 255, 0.96);;animation:none"></path>
<path fill="currentColor" d="M1784.25 354.64L1755.00 405.30L1813.50 405.30zM1579.50 506.62L1638.00 506.62L1608.75 557.29zM380.25 557.29L438.75 557.29L409.50 607.95zM555.75 759.94L614.25 759.94L585.00 810.60zM731.25 759.94L702.00 810.60L760.50 810.60zM936.00 810.60L994.50 810.60L965.25 861.26zM1462.50 810.60L1521.00 810.60L1491.75 861.26zM555.75 861.26L526.50 911.92L585.00 911.92zM789.75 861.26L848.25 861.26L819.00 911.92zM351.00 911.92L321.75 962.59L380.25 962.59zM585.00 911.92L643.50 911.92L614.25 962.59z" style="fill:rgba(56, 134, 255, 0.992);;animation:none"></path>
<path fill="currentColor" d="M1345.50 0.00L1404.00 0.00L1374.75 50.66zM1404.00 0.00L1374.75 50.66L1433.25 50.66zM1813.50 0.00L1872.00 0.00L1842.75 50.66zM1930.50 101.32L1901.25 151.99L1959.75 151.99zM1345.50 202.65L1316.25 253.31L1374.75 253.31zM1316.25 253.31L1374.75 253.31L1345.50 303.97zM1374.75 253.31L1345.50 303.97L1404.00 303.97zM1667.25 253.31L1725.75 253.31L1696.50 303.97zM1784.25 253.31L1842.75 253.31L1813.50 303.97zM1228.50 303.97L1199.25 354.64L1257.75 354.64zM1872.00 303.97L1930.50 303.97L1901.25 354.64zM1608.75 354.64L1579.50 405.30L1638.00 405.30zM1608.75 354.64L1667.25 354.64L1638.00 405.30zM1842.75 354.64L1813.50 405.30L1872.00 405.30zM1842.75 354.64L1901.25 354.64L1872.00 405.30zM1228.50 405.30L1287.00 405.30L1257.75 455.96zM1287.00 405.30L1257.75 455.96L1316.25 455.96zM1404.00 405.30L1374.75 455.96L1433.25 455.96zM1404.00 405.30L1462.50 405.30L1433.25 455.96zM1638.00 405.30L1696.50 405.30L1667.25 455.96zM1872.00 405.30L1930.50 405.30L1901.25 455.96zM1930.50 405.30L1989.00 405.30L1959.75 455.96zM906.75 455.96L877.50 506.62L936.00 506.62zM1491.75 455.96L1550.25 455.96L1521.00 506.62zM1404.00 506.62L1374.75 557.29L1433.25 557.29zM1404.00 506.62L1462.50 506.62L1433.25 557.29zM1579.50 506.62L1550.25 557.29L1608.75 557.29zM1813.50 506.62L1872.00 506.62L1842.75 557.29zM1872.00 506.62L1842.75 557.29L1901.25 557.29zM1433.25 557.29L1404.00 607.95L1462.50 607.95zM1550.25 557.29L1608.75 557.29L1579.50 607.95zM994.50 607.95L1053.00 607.95L1023.75 658.61zM1755.00 607.95L1725.75 658.61L1784.25 658.61zM848.25 658.61L819.00 709.27L877.50 709.27zM1199.25 658.61L1257.75 658.61L1228.50 709.27zM1725.75 658.61L1696.50 709.27L1755.00 709.27zM1725.75 658.61L1784.25 658.61L1755.00 709.27zM1784.25 658.61L1755.00 709.27L1813.50 709.27zM1784.25 658.61L1842.75 658.61L1813.50 709.27zM1959.75 658.61L1930.50 709.27L1989.00 709.27zM1404.00 709.27L1374.75 759.94L1433.25 759.94zM1462.50 709.27L1521.00 709.27L1491.75 759.94zM1521.00 709.27L1579.50 709.27L1550.25 759.94zM1579.50 709.27L1638.00 709.27L1608.75 759.94zM1638.00 709.27L1608.75 759.94L1667.25 759.94zM1813.50 709.27L1872.00 709.27L1842.75 759.94zM1989.00 709.27L1959.75 759.94L2018.25 759.94zM1082.25 759.94L1053.00 810.60L1111.50 810.60zM1550.25 759.94L1608.75 759.94L1579.50 810.60zM1608.75 759.94L1579.50 810.60L1638.00 810.60zM1608.75 759.94L1667.25 759.94L1638.00 810.60zM1667.25 759.94L1725.75 759.94L1696.50 810.60zM1725.75 759.94L1696.50 810.60L1755.00 810.60zM1725.75 759.94L1784.25 759.94L1755.00 810.60zM1784.25 759.94L1842.75 759.94L1813.50 810.60zM1053.00 810.60L1111.50 810.60L1082.25 861.26zM1111.50 810.60L1082.25 861.26L1140.75 861.26zM1170.00 810.60L1228.50 810.60L1199.25 861.26zM1228.50 810.60L1199.25 861.26L1257.75 861.26zM1579.50 810.60L1550.25 861.26L1608.75 861.26zM1638.00 810.60L1608.75 861.26L1667.25 861.26zM1638.00 810.60L1696.50 810.60L1667.25 861.26zM1696.50 810.60L1755.00 810.60L1725.75 861.26zM497.25 861.26L555.75 861.26L526.50 911.92zM1140.75 861.26L1111.50 911.92L1170.00 911.92zM1140.75 861.26L1199.25 861.26L1170.00 911.92zM1257.75 861.26L1228.50 911.92L1287.00 911.92zM1316.25 861.26L1374.75 861.26L1345.50 911.92zM1550.25 861.26L1608.75 861.26L1579.50 911.92zM1667.25 861.26L1638.00 911.92L1696.50 911.92zM1725.75 861.26L1696.50 911.92L1755.00 911.92zM1228.50 911.92L1199.25 962.59L1257.75 962.59zM1404.00 911.92L1462.50 911.92L1433.25 962.59zM1579.50 911.92L1550.25 962.59L1608.75 962.59zM1755.00 911.92L1813.50 911.92L1784.25 962.59zM1930.50 911.92L1989.00 911.92L1959.75 962.59z" style="fill:rgba(57, 134, 255, 0.992);;animation:none"></path>
<g></g></g><!-- [ldio] generated by https://loading.io --></svg>